<?xml version="1.0" standalone="no"?>
<!DOCTYPE svg PUBLIC "-//W3C//DTD SVG 20010904//EN"
 "http://www.w3.org/TR/2001/REC-SVG-20010904/DTD/svg10.dtd">
<svg version="1.0" xmlns="http://www.w3.org/2000/svg"
 width="608.000000pt" height="608.000000pt" viewBox="0 0 608.000000 608.000000"
 preserveAspectRatio="xMidYMid meet">
<metadata>
Created by potrace 1.11, written by Peter Selinger 2001-2013
</metadata>
<g transform="translate(0.000000,608.000000) scale(0.100000,-0.100000)"
fill="#000000" stroke="none">
<path d="M2050 5545 c-217 -36 -432 -146 -593 -303 -58 -56 -60 -57 -120 -58
-104 -3 -171 -11 -257 -33 -319 -82 -580 -343 -672 -671 -15 -53 -29 -83 -43
-90 -11 -7 -45 -41 -75 -77 -30 -36 -60 -71 -66 -77 -19 -20 -101 -160 -127
-217 -93 -205 -118 -425 -72 -654 10 -51 54 -174 80 -226 14 -27 26 -52 26
-56 1 -5 14 -24 30 -44 16 -20 29 -40 29 -43 0 -11 93 -111 143 -153 60 -51
169 -117 212 -129 6 -2 30 -10 55 -19 48 -18 52 -19 143 -36 146 -26 347 -1
545 68 l72 26 91 -63 c115 -79 129 -91 129 -111 0 -9 16 -48 35 -87 35 -69 77
-120 140 -167 31 -24 164 -73 225 -83 46 -7 227 -6 265 2 75 16 144 40 198 69
53 29 60 30 90 18 77 -32 152 -47 238 -50 22 -1 32 -12 63 -73 48 -94 53 -103
103 -168 158 -210 372 -344 648 -407 69 -15 266 -21 342 -10 233 35 442 137
608 299 l59 58 162 -162 163 -162 -47 -47 c-26 -25 -58 -58 -71 -73 l-24 -26
404 -406 c222 -223 424 -426 448 -450 24 -24 49 -44 55 -44 6 0 96 86 200 191
l189 190 -49 49 c-27 26 -231 231 -453 454 -345 347 -406 404 -420 393 -8 -6
-41 -38 -72 -71 l-58 -58 -171 173 c-94 95 -167 175 -162 178 12 9 78 140 101
201 49 132 65 229 65 380 -1 156 -20 263 -71 397 -17 42 -19 60 -11 95 5 24
11 123 13 220 2 98 6 190 9 205 16 71 22 242 11 293 -3 14 -7 39 -9 55 -20
168 -87 365 -174 510 -41 68 -35 60 -102 142 -63 78 -119 133 -190 187 -30 22
-57 44 -60 47 -3 3 -26 18 -51 32 -30 18 -64 52 -101 105 -91 127 -246 271
-368 341 -154 90 -304 144 -470 169 -54 8 -321 8 -370 -1 -19 -3 -68 -13 -108
-22 -72 -17 -72 -17 -140 9 -93 35 -148 52 -212 66 -77 17 -310 20 -400 5z
m2394 -3331 c3 -8 2 -12 -4 -9 -6 3 -10 10 -10 16 0 14 7 11 14 -7z m-199 -94
c3 -5 1 -10 -4 -10 -6 0 -11 5 -11 10 0 6 2 10 4 10 3 0 8 -4 11 -10z m110
-80 c3 -6 -1 -7 -9 -4 -18 7 -21 14 -7 14 6 0 13 -4 16 -10z m-151 -66 c3 -8
2 -12 -4 -9 -6 3 -10 10 -10 16 0 14 7 11 14 -7z m-169 -14 c3 -6 -1 -7 -9 -4
-18 7 -21 14 -7 14 6 0 13 -4 16 -10z m-511 -126 c3 -8 2 -12 -4 -9 -6 3 -10
10 -10 16 0 14 7 11 14 -7z m290 8 c3 -5 -1 -9 -9 -9 -8 0 -12 4 -9 9 3 4 7 8
9 8 2 0 6 -4 9 -8z"/>
</g>
</svg>
