<svg width="180" height="52" viewBox="0 0 180 52" fill="none" xmlns="http://www.w3.org/2000/svg">
<rect width="180" height="52" fill="#C4C4C4"/>
<path d="M20.295 30H18.045C17.785 30 17.575 29.935 17.415 29.805C17.255 29.675 17.135 29.51 17.055 29.31L15.045 24.12H5.4L3.39 29.31C3.32 29.49 3.2 29.65 3.03 29.79C2.86 29.93 2.65 30 2.4 30H0.15L8.745 8.505H11.7L20.295 30ZM6.21 22.02H14.235L10.86 13.275C10.64 12.735 10.425 12.06 10.215 11.25C10.105 11.66 9.995 12.04 9.885 12.39C9.785 12.73 9.685 13.03 9.585 13.29L6.21 22.02ZM33.5756 22.23C33.7156 22.47 33.8356 22.725 33.9356 22.995C34.0456 23.255 34.1506 23.52 34.2506 23.79C34.3506 23.51 34.4556 23.245 34.5656 22.995C34.6756 22.735 34.8006 22.475 34.9406 22.215L42.2156 9C42.3456 8.77 42.4806 8.63 42.6206 8.58C42.7606 8.53 42.9606 8.505 43.2206 8.505H45.3656V30H42.8156V14.205C42.8156 13.995 42.8206 13.77 42.8306 13.53C42.8406 13.29 42.8556 13.045 42.8756 12.795L35.5106 26.235C35.2606 26.685 34.9106 26.91 34.4606 26.91H34.0406C33.5906 26.91 33.2406 26.685 32.9906 26.235L25.4606 12.75C25.4906 13.01 25.5106 13.265 25.5206 13.515C25.5406 13.765 25.5506 13.995 25.5506 14.205V30H23.0006V8.505H25.1456C25.4056 8.505 25.6056 8.53 25.7456 8.58C25.8856 8.63 26.0206 8.77 26.1506 9L33.5756 22.23ZM53.7933 21.96V30H50.8983V8.505H57.2433C58.6033 8.505 59.7833 8.665 60.7833 8.985C61.7933 9.295 62.6283 9.74 63.2883 10.32C63.9483 10.9 64.4383 11.6 64.7583 12.42C65.0883 13.24 65.2533 14.155 65.2533 15.165C65.2533 16.165 65.0783 17.08 64.7283 17.91C64.3783 18.74 63.8633 19.455 63.1833 20.055C62.5133 20.655 61.6783 21.125 60.6783 21.465C59.6783 21.795 58.5333 21.96 57.2433 21.96H53.7933ZM53.7933 19.65H57.2433C58.0733 19.65 58.8033 19.54 59.4333 19.32C60.0733 19.1 60.6083 18.795 61.0383 18.405C61.4683 18.005 61.7933 17.53 62.0133 16.98C62.2333 16.43 62.3433 15.825 62.3433 15.165C62.3433 13.795 61.9183 12.725 61.0683 11.955C60.2283 11.185 58.9533 10.8 57.2433 10.8H53.7933V19.65ZM77.6489 27.555H86.9489V30H74.7389V8.505H77.6489V27.555ZM95.3517 14.565C96.4617 14.565 97.4617 14.75 98.3517 15.12C99.2517 15.49 100.012 16.015 100.632 16.695C101.262 17.375 101.742 18.2 102.072 19.17C102.412 20.13 102.582 21.205 102.582 22.395C102.582 23.595 102.412 24.675 102.072 25.635C101.742 26.595 101.262 27.415 100.632 28.095C100.012 28.775 99.2517 29.3 98.3517 29.67C97.4617 30.03 96.4617 30.21 95.3517 30.21C94.2417 30.21 93.2367 30.03 92.3367 29.67C91.4467 29.3 90.6867 28.775 90.0567 28.095C89.4267 27.415 88.9417 26.595 88.6017 25.635C88.2617 24.675 88.0917 23.595 88.0917 22.395C88.0917 21.205 88.2617 20.13 88.6017 19.17C88.9417 18.2 89.4267 17.375 90.0567 16.695C90.6867 16.015 91.4467 15.49 92.3367 15.12C93.2367 14.75 94.2417 14.565 95.3517 14.565ZM95.3517 28.125C96.8517 28.125 97.9717 27.625 98.7117 26.625C99.4517 25.615 99.8217 24.21 99.8217 22.41C99.8217 20.6 99.4517 19.19 98.7117 18.18C97.9717 17.17 96.8517 16.665 95.3517 16.665C94.5917 16.665 93.9317 16.795 93.3717 17.055C92.8117 17.315 92.3417 17.69 91.9617 18.18C91.5917 18.67 91.3117 19.275 91.1217 19.995C90.9417 20.705 90.8517 21.51 90.8517 22.41C90.8517 23.31 90.9417 24.115 91.1217 24.825C91.3117 25.535 91.5917 26.135 91.9617 26.625C92.3417 27.105 92.8117 27.475 93.3717 27.735C93.9317 27.995 94.5917 28.125 95.3517 28.125ZM110.987 14.55C111.647 14.55 112.262 14.625 112.832 14.775C113.412 14.915 113.937 15.125 114.407 15.405H118.532V16.395C118.532 16.725 118.322 16.935 117.902 17.025L116.177 17.265C116.517 17.915 116.687 18.64 116.687 19.44C116.687 20.18 116.542 20.855 116.252 21.465C115.972 22.065 115.577 22.58 115.067 23.01C114.567 23.44 113.967 23.77 113.267 24C112.577 24.23 111.817 24.345 110.987 24.345C110.277 24.345 109.607 24.26 108.977 24.09C108.657 24.29 108.412 24.505 108.242 24.735C108.082 24.965 108.002 25.19 108.002 25.41C108.002 25.77 108.147 26.045 108.437 26.235C108.727 26.415 109.112 26.545 109.592 26.625C110.072 26.705 110.617 26.755 111.227 26.775C111.837 26.795 112.457 26.83 113.087 26.88C113.727 26.92 114.352 26.995 114.962 27.105C115.572 27.215 116.117 27.395 116.597 27.645C117.077 27.895 117.462 28.24 117.752 28.68C118.042 29.12 118.187 29.69 118.187 30.39C118.187 31.04 118.022 31.67 117.692 32.28C117.372 32.89 116.907 33.43 116.297 33.9C115.687 34.38 114.942 34.76 114.062 35.04C113.182 35.33 112.187 35.475 111.077 35.475C109.967 35.475 108.992 35.365 108.152 35.145C107.322 34.925 106.632 34.63 106.082 34.26C105.532 33.89 105.117 33.46 104.837 32.97C104.567 32.49 104.432 31.985 104.432 31.455C104.432 30.705 104.667 30.07 105.137 29.55C105.617 29.02 106.272 28.6 107.102 28.29C106.672 28.09 106.327 27.825 106.067 27.495C105.817 27.155 105.692 26.705 105.692 26.145C105.692 25.925 105.732 25.7 105.812 25.47C105.892 25.23 106.012 24.995 106.172 24.765C106.342 24.535 106.547 24.315 106.787 24.105C107.027 23.895 107.307 23.71 107.627 23.55C106.877 23.13 106.287 22.575 105.857 21.885C105.437 21.185 105.227 20.37 105.227 19.44C105.227 18.7 105.367 18.03 105.647 17.43C105.937 16.82 106.337 16.305 106.847 15.885C107.357 15.455 107.962 15.125 108.662 14.895C109.372 14.665 110.147 14.55 110.987 14.55ZM115.727 30.825C115.727 30.445 115.622 30.14 115.412 29.91C115.202 29.68 114.917 29.505 114.557 29.385C114.197 29.255 113.782 29.16 113.312 29.1C112.842 29.04 112.347 29 111.827 28.98C111.307 28.95 110.777 28.92 110.237 28.89C109.697 28.86 109.182 28.805 108.692 28.725C108.122 28.995 107.657 29.325 107.297 29.715C106.947 30.105 106.772 30.57 106.772 31.11C106.772 31.45 106.857 31.765 107.027 32.055C107.207 32.355 107.477 32.61 107.837 32.82C108.197 33.04 108.647 33.21 109.187 33.33C109.737 33.46 110.382 33.525 111.122 33.525C111.842 33.525 112.487 33.46 113.057 33.33C113.627 33.2 114.107 33.015 114.497 32.775C114.897 32.535 115.202 32.25 115.412 31.92C115.622 31.59 115.727 31.225 115.727 30.825ZM110.987 22.575C111.527 22.575 112.002 22.5 112.412 22.35C112.832 22.2 113.182 21.99 113.462 21.72C113.742 21.45 113.952 21.13 114.092 20.76C114.232 20.38 114.302 19.965 114.302 19.515C114.302 18.585 114.017 17.845 113.447 17.295C112.887 16.745 112.067 16.47 110.987 16.47C109.917 16.47 109.097 16.745 108.527 17.295C107.967 17.845 107.687 18.585 107.687 19.515C107.687 19.965 107.757 20.38 107.897 20.76C108.047 21.13 108.262 21.45 108.542 21.72C108.822 21.99 109.167 22.2 109.577 22.35C109.987 22.5 110.457 22.575 110.987 22.575ZM127.344 14.565C128.454 14.565 129.454 14.75 130.344 15.12C131.244 15.49 132.004 16.015 132.624 16.695C133.254 17.375 133.734 18.2 134.064 19.17C134.404 20.13 134.574 21.205 134.574 22.395C134.574 23.595 134.404 24.675 134.064 25.635C133.734 26.595 133.254 27.415 132.624 28.095C132.004 28.775 131.244 29.3 130.344 29.67C129.454 30.03 128.454 30.21 127.344 30.21C126.234 30.21 125.229 30.03 124.329 29.67C123.439 29.3 122.679 28.775 122.049 28.095C121.419 27.415 120.934 26.595 120.594 25.635C120.254 24.675 120.084 23.595 120.084 22.395C120.084 21.205 120.254 20.13 120.594 19.17C120.934 18.2 121.419 17.375 122.049 16.695C122.679 16.015 123.439 15.49 124.329 15.12C125.229 14.75 126.234 14.565 127.344 14.565ZM127.344 28.125C128.844 28.125 129.964 27.625 130.704 26.625C131.444 25.615 131.814 24.21 131.814 22.41C131.814 20.6 131.444 19.19 130.704 18.18C129.964 17.17 128.844 16.665 127.344 16.665C126.584 16.665 125.924 16.795 125.364 17.055C124.804 17.315 124.334 17.69 123.954 18.18C123.584 18.67 123.304 19.275 123.114 19.995C122.934 20.705 122.844 21.51 122.844 22.41C122.844 23.31 122.934 24.115 123.114 24.825C123.304 25.535 123.584 26.135 123.954 26.625C124.334 27.105 124.804 27.475 125.364 27.735C125.924 27.995 126.584 28.125 127.344 28.125Z" transform="translate(22 8)" fill="white"/>
</svg>
